<?xml version="1.0" standalone="no"?>
<!DOCTYPE svg PUBLIC "-//W3C//DTD SVG 20010904//EN"
 "http://www.w3.org/TR/2001/REC-SVG-20010904/DTD/svg10.dtd">
<svg version="1.0" xmlns="http://www.w3.org/2000/svg"
 width="500.000000pt" height="500.000000pt" viewBox="0 0 500.000000 500.000000"
 preserveAspectRatio="xMidYMid meet">
<metadata>
Created by potrace 1.11, written by Peter Selinger 2001-2013
</metadata>
<g transform="translate(0.000000,500.000000) scale(0.100000,-0.100000)"
fill="#000000" stroke="none">
<path d="M0 2500 l0 -2500 2500 0 2500 0 0 2500 0 2500 -2500 0 -2500 0 0
-2500z m2675 2080 c1028 -118 1773 -1059 1640 -2073 -14 -104 -55 -291 -67
-303 -5 -4 -740 94 -746 100 -1 2 5 23 13 47 59 163 79 387 52 565 -41 263
-157 495 -342 679 -272 273 -657 382 -1019 290 -391 -99 -684 -431 -782 -885
-22 -104 -29 -317 -15 -434 62 -493 376 -885 794 -991 253 -64 507 -33 750 93
l89 45 -291 291 -291 291 0 460 0 460 935 -930 935 -931 0 -458 c0 -303 -3
-457 -10 -454 -6 2 -183 173 -395 381 l-385 378 -82 -49 c-318 -191 -643 -282
-1001 -282 -293 1 -549 60 -801 186 -180 90 -291 170 -445 318 -310 301 -500
696 -552 1146 -16 144 -6 423 20 565 123 661 565 1188 1177 1405 245 87 551
120 819 90z"/>
</g>
</svg>
